<?xml version="1.0" encoding="UTF-8" standalone="no"?>
<svg width="2473px" height="1268px" viewBox="0 0 2473 1268" version="1.1" xmlns="http://www.w3.org/2000/svg" xmlns:xlink="http://www.w3.org/1999/xlink" xmlns:sketch="http://www.bohemiancoding.com/sketch/ns">
    <!-- Generator: Sketch 3.2.2 (9983) - http://www.bohemiancoding.com/sketch -->
    <title>detail offer L 10.psd (all selected layers)</title>
    <desc>Created with Sketch.</desc>
    <defs></defs>
    <g id="Page-1" stroke="none" stroke-width="1" fill="none" fill-rule="evenodd" sketch:type="MSPage">
        <g id="detail-offer-L-10.psd-(all-selected-layers)" sketch:type="MSLayerGroup" transform="translate(-1.000000, 0.000000)" fill="#FFFFFF">
            <path d="M568.451,932.259 C574.5,928.563 581.335,926.86 588.402,926.185 C597.523,925.316 606.358,926.583 614.151,931.647 C618.745,934.631 621.507,939.463 621.959,944.797 C622.421,950.244 618.37,953.388 613.801,955.466 C607.113,958.508 599.942,959.64 592.677,960.022 C585.934,960.375 579.209,960.557 572.414,960.283 C556.387,959.637 540.434,962.796 524.357,961.817 C504.524,960.609 484.658,960.083 464.844,958.41 C453.338,957.439 441.832,956.052 430.316,955.708 C423.825,955.514 417.284,957.756 410.732,958.649 C396.366,960.606 381.969,962.533 367.565,959.002 C363.478,958 359.41,956.516 357.222,952.626 C354.318,947.463 356.681,941.978 363.04,938.568 C368.157,935.822 373.833,934.978 379.481,934.135 C387.604,932.923 395.789,933.035 403.964,933.168 C406.782,933.215 408.178,932.972 407.356,929.347 C404.905,918.542 406.633,908.525 414.376,900.07 C420.845,893.006 429.477,889.973 438.436,888.172 C453.885,885.066 469.403,885.062 484.623,889.674 C493.379,892.328 501.811,895.884 508.448,902.478 C511.009,905.023 513.516,904.619 516.5,903.765 C527.611,900.591 539.007,899.278 550.349,901.558 C565.725,904.651 570.911,912.861 568.323,928.28 C568.128,929.439 567.198,930.567 568.451,932.259 L568.451,932.259 Z" id="Shape" sketch:type="MSShapeGroup"></path>
            <path d="M2375.558,199.214 C2386.679,192.402 2399.245,189.266 2412.235,188.024 C2429.004,186.422 2445.244,188.758 2459.571,198.084 C2468.016,203.583 2473.093,212.483 2473.924,222.31 C2474.773,232.343 2467.327,238.135 2458.927,241.962 C2446.632,247.566 2433.449,249.654 2420.095,250.354 C2407.699,251.005 2395.336,251.339 2382.844,250.835 C2353.382,249.646 2324.055,255.465 2294.498,253.662 C2258.039,251.438 2221.518,250.467 2185.092,247.386 C2163.94,245.597 2142.79,243.041 2121.618,242.408 C2109.685,242.051 2097.661,246.18 2085.616,247.825 C2059.208,251.43 2032.74,254.979 2006.261,248.477 C1998.748,246.632 1991.269,243.897 1987.247,236.73 C1981.909,227.22 1986.252,217.117 1997.943,210.833 C2007.35,205.777 2017.783,204.22 2028.167,202.669 C2043.099,200.437 2058.146,200.641 2073.175,200.887 C2078.355,200.972 2080.922,200.527 2079.41,193.848 C2074.904,173.945 2078.081,155.49 2092.315,139.916 C2104.207,126.905 2120.076,121.317 2136.546,118 C2164.947,112.278 2193.473,112.271 2221.453,120.766 C2237.55,125.654 2253.052,132.207 2265.252,144.353 C2269.961,149.041 2274.569,148.296 2280.054,146.724 C2300.48,140.875 2321.43,138.46 2342.281,142.66 C2370.547,148.355 2380.081,163.48 2375.323,191.881 C2374.965,194.018 2373.256,196.095 2375.558,199.214 L2375.558,199.214 Z" id="Shape" sketch:type="MSShapeGroup"></path>
            <path d="M2269.451,853.259 C2275.5,849.562 2282.335,847.859 2289.402,847.186 C2298.523,846.315 2307.358,847.585 2315.151,852.646 C2319.745,855.631 2322.507,860.463 2322.959,865.798 C2323.42,871.245 2319.37,874.389 2314.801,876.467 C2308.113,879.508 2300.942,880.641 2293.677,881.021 C2286.934,881.375 2280.209,881.556 2273.414,881.284 C2257.388,880.637 2241.435,883.795 2225.357,882.818 C2205.524,881.61 2185.658,881.084 2165.844,879.411 C2154.338,878.439 2142.833,877.053 2131.316,876.71 C2124.824,876.514 2118.284,878.756 2111.732,879.649 C2097.367,881.606 2082.969,883.533 2068.565,880.003 C2064.479,879.001 2060.41,877.515 2058.222,873.626 C2055.318,868.463 2057.681,862.978 2064.04,859.569 C2069.157,856.823 2074.833,855.979 2080.481,855.135 C2088.604,853.924 2096.789,854.033 2104.964,854.168 C2107.782,854.213 2109.178,853.972 2108.356,850.347 C2105.905,839.542 2107.633,829.525 2115.376,821.07 C2121.845,814.006 2130.477,810.973 2139.436,809.172 C2154.885,806.065 2170.402,806.062 2185.623,810.675 C2194.379,813.327 2202.811,816.885 2209.448,823.478 C2212.009,826.024 2214.516,825.618 2217.5,824.765 C2228.611,821.589 2240.007,820.279 2251.349,822.559 C2266.725,825.65 2271.911,833.861 2269.323,849.279 C2269.128,850.439 2268.199,851.567 2269.451,853.259 L2269.451,853.259 Z" id="Shape" sketch:type="MSShapeGroup"></path>
            <path d="M535.211,52.346 C542.078,48.163 549.837,46.235 557.859,45.474 C568.214,44.488 578.243,45.923 587.09,51.653 C592.305,55.03 595.44,60.497 595.953,66.534 C596.477,72.696 591.88,76.254 586.693,78.607 C579.1,82.048 570.959,83.33 562.713,83.761 C555.058,84.161 547.424,84.367 539.71,84.057 C521.516,83.325 503.407,86.901 485.155,85.793 C462.641,84.427 440.089,83.83 417.595,81.937 C404.533,80.839 391.473,79.269 378.399,78.88 C371.03,78.661 363.606,81.197 356.167,82.208 C339.86,84.423 323.516,86.602 307.164,82.607 C302.525,81.474 297.907,79.795 295.423,75.393 C292.127,69.549 294.808,63.343 302.028,59.484 C307.837,56.377 314.28,55.422 320.692,54.469 C329.912,53.097 339.204,53.223 348.485,53.374 C351.683,53.425 353.269,53.152 352.335,49.05 C349.552,36.823 351.514,25.488 360.304,15.921 C367.648,7.927 377.447,4.495 387.617,2.458 C405.155,-1.058 422.771,-1.062 440.049,4.157 C449.989,7.16 459.561,11.184 467.095,18.646 C470.003,21.526 472.849,21.067 476.236,20.102 C488.849,16.51 501.786,15.026 514.662,17.606 C532.116,21.103 538.004,30.396 535.066,47.843 C534.845,49.155 533.789,50.431 535.211,52.346 L535.211,52.346 Z" id="Shape" sketch:type="MSShapeGroup"></path>
            <path d="M640.748,308.383 C658.965,297.244 679.548,292.112 700.826,290.082 C728.294,287.462 754.896,291.281 778.365,306.536 C792.198,315.529 800.514,330.091 801.876,346.162 C803.266,362.575 791.07,372.048 777.31,378.31 C757.17,387.476 735.577,390.888 713.701,392.035 C693.396,393.098 673.145,393.648 652.683,392.823 C604.422,390.876 556.384,400.397 507.969,397.446 C448.247,393.808 388.425,392.22 328.758,387.18 C294.11,384.253 259.465,380.076 224.785,379.038 C205.238,378.454 185.544,385.209 165.812,387.898 C122.555,393.795 79.2,399.601 35.826,388.963 C23.519,385.946 11.269,381.473 4.68,369.752 C-4.063,354.195 3.05,337.668 22.2,327.39 C37.61,319.119 54.7,316.574 71.709,314.036 C96.167,310.385 120.816,310.719 145.434,311.122 C153.918,311.26 158.124,310.53 155.647,299.608 C148.266,267.052 153.47,236.865 176.786,211.391 C196.266,190.108 222.259,180.969 249.237,175.541 C295.759,166.181 342.487,166.171 388.319,180.068 C414.687,188.063 440.078,198.78 460.063,218.647 C467.776,226.315 475.325,225.096 484.31,222.527 C517.768,212.959 552.084,209.007 586.239,215.879 C632.539,225.193 648.156,249.933 640.364,296.391 C639.777,299.886 636.977,303.284 640.748,308.383 L640.748,308.383 Z" id="Shape" sketch:type="MSShapeGroup"></path>
            <path d="M1804.748,1177.383 C1822.965,1166.243 1843.548,1161.112 1864.826,1159.081 C1892.294,1156.461 1918.897,1160.281 1942.365,1175.537 C1956.198,1184.53 1964.514,1199.09 1965.876,1215.163 C1967.266,1231.574 1955.07,1241.048 1941.311,1247.309 C1921.17,1256.476 1899.577,1259.888 1877.701,1261.035 C1857.396,1262.098 1837.145,1262.647 1816.683,1261.823 C1768.422,1259.876 1720.384,1269.396 1671.969,1266.447 C1612.247,1262.807 1552.425,1261.219 1492.758,1256.179 C1458.11,1253.253 1423.465,1249.077 1388.785,1248.039 C1369.238,1247.454 1349.544,1254.208 1329.812,1256.898 C1286.554,1262.795 1243.2,1268.601 1199.826,1257.964 C1187.52,1254.946 1175.269,1250.473 1168.68,1238.75 C1159.937,1223.195 1167.05,1206.668 1186.2,1196.39 C1201.61,1188.119 1218.7,1185.574 1235.709,1183.035 C1260.167,1179.386 1284.816,1179.719 1309.434,1180.121 C1317.918,1180.26 1322.124,1179.531 1319.647,1168.607 C1312.266,1136.053 1317.47,1105.865 1340.786,1080.392 C1360.266,1059.108 1386.259,1049.967 1413.237,1044.54 C1459.759,1035.182 1506.487,1035.17 1552.319,1049.067 C1578.687,1057.063 1604.078,1067.78 1624.063,1087.647 C1631.776,1095.315 1639.325,1094.096 1648.31,1091.527 C1681.768,1081.959 1716.084,1078.007 1750.24,1084.878 C1796.54,1094.193 1812.157,1118.934 1804.364,1165.39 C1803.777,1168.886 1800.978,1172.284 1804.748,1177.383 L1804.748,1177.383 Z" id="Shape" sketch:type="MSShapeGroup"></path>
        </g>
    </g>
</svg>